<?xml version="1.0" encoding="utf-8"?>
<!-- Generator: Adobe Illustrator 15.0.0, SVG Export Plug-In . SVG Version: 6.00 Build 0)  -->
<!DOCTYPE svg PUBLIC "-//W3C//DTD SVG 1.1//EN" "http://www.w3.org/Graphics/SVG/1.1/DTD/svg11.dtd">
<svg version="1.1" id="Слой_1" xmlns="http://www.w3.org/2000/svg" xmlns:xlink="http://www.w3.org/1999/xlink" x="0px" y="0px"
	 width="155px" height="58px" viewBox="0 0 155 58" enable-background="new 0 0 155 58" xml:space="preserve">
<g>
	<defs>
		<path id="SVGID_1_" d="M37.819,16.205c0,0-2.456,0.055-3.449,1.455c-0.994,1.401-3.603,5.793-3.603,5.793v-7.248h-4.951
			l-0.003,14.536h2.104c0,0,2.335,0.022,3.432-1.458c1.097-1.475,3.632-5.808,3.632-5.808v7.266h4.951V16.205H37.819z"/>
	</defs>
	<clipPath id="SVGID_2_">
		<use xlink:href="#SVGID_1_"  overflow="visible"/>
	</clipPath>
	
		<linearGradient id="SVGID_3_" gradientUnits="userSpaceOnUse" x1="-210.8516" y1="448.7236" x2="-210.405" y2="448.7236" gradientTransform="matrix(0 -32.5282 -32.5282 0 14629.0322 -6827.8667)">
		<stop  offset="0" style="stop-color:#DF5F2C"/>
		<stop  offset="0.7819" style="stop-color:#E67B29"/>
		<stop  offset="1" style="stop-color:#E88428"/>
	</linearGradient>
	<rect x="25.813" y="16.205" clip-path="url(#SVGID_2_)" fill="url(#SVGID_3_)" width="14.119" height="14.559"/>
</g>
<g>
	<defs>
		<polygon id="SVGID_4_" points="50.509,16.193 50.509,21.289 46.266,21.289 46.266,16.193 41.331,16.193 41.331,30.741 
			46.266,30.741 46.266,25.659 50.509,25.659 50.509,30.741 55.442,30.741 55.442,16.193 		"/>
	</defs>
	<clipPath id="SVGID_5_">
		<use xlink:href="#SVGID_4_"  overflow="visible"/>
	</clipPath>
	
		<linearGradient id="SVGID_6_" gradientUnits="userSpaceOnUse" x1="-210.8594" y1="449.3467" x2="-210.4126" y2="449.3467" gradientTransform="matrix(0 -32.5537 -32.5537 0 14676.3301 -6833.498)">
		<stop  offset="0" style="stop-color:#DF5F2C"/>
		<stop  offset="0.7819" style="stop-color:#E67B29"/>
		<stop  offset="1" style="stop-color:#E88428"/>
	</linearGradient>
	<rect x="41.331" y="16.193" clip-path="url(#SVGID_5_)" fill="url(#SVGID_6_)" width="14.111" height="14.548"/>
</g>
<g>
	<defs>
		<polygon id="SVGID_7_" points="72.375,10.379 72.375,30.741 78.014,30.741 78.014,14.735 83.649,14.735 83.649,30.741 
			89.295,30.741 89.295,10.379 		"/>
	</defs>
	<clipPath id="SVGID_8_">
		<use xlink:href="#SVGID_7_"  overflow="visible"/>
	</clipPath>
	
		<linearGradient id="SVGID_9_" gradientUnits="userSpaceOnUse" x1="-213.4692" y1="450.4658" x2="-213.0225" y2="450.4658" gradientTransform="matrix(0 -45.562 -45.562 0 20604.9531 -9695.3242)">
		<stop  offset="0" style="stop-color:#DF5F2C"/>
		<stop  offset="0.7819" style="stop-color:#E67B29"/>
		<stop  offset="1" style="stop-color:#E88428"/>
	</linearGradient>
	<rect x="72.375" y="10.379" clip-path="url(#SVGID_8_)" fill="url(#SVGID_9_)" width="16.92" height="20.362"/>
</g>
<g>
	<defs>
		<path id="SVGID_10_" d="M21.192,10.377c-1.366,0-2.371,0.685-2.764,1.414c-0.392,0.729-3.174,6.566-3.174,6.566h-0.706v-7.98
			H8.898v20.372h5.649v-8.007h0.706c0,0,3.009,5.828,3.335,6.453c0.328,0.625,1.246,1.555,2.622,1.555h4.964L20.26,19.9l5.514-9.523
			H21.192z"/>
	</defs>
	<clipPath id="SVGID_11_">
		<use xlink:href="#SVGID_10_"  overflow="visible"/>
	</clipPath>
	
		<linearGradient id="SVGID_12_" gradientUnits="userSpaceOnUse" x1="-213.4712" y1="448.6475" x2="-213.0244" y2="448.6475" gradientTransform="matrix(0 -45.5786 -45.5786 0 20466.2949 -9698.9355)">
		<stop  offset="0" style="stop-color:#DF5F2C"/>
		<stop  offset="0.7819" style="stop-color:#E67B29"/>
		<stop  offset="1" style="stop-color:#E88428"/>
	</linearGradient>
	<rect x="8.898" y="10.377" clip-path="url(#SVGID_11_)" fill="url(#SVGID_12_)" width="17.276" height="20.372"/>
</g>
<g>
	<defs>
		<path id="SVGID_13_" d="M144.918,16.199c-1.307,0-2.387,0.565-2.865,1.444c-0.48,0.88-2.191,4.368-2.191,4.368h-0.49v-5.812
			h-4.945v14.55h4.945v-5.824h0.49c0,0,1.649,3.403,2.176,4.366c0.521,0.962,1.563,1.458,2.858,1.458h3.59l-4.235-7.458l4.259-7.092
			H144.918z"/>
	</defs>
	<clipPath id="SVGID_14_">
		<use xlink:href="#SVGID_13_"  overflow="visible"/>
	</clipPath>
	
		<linearGradient id="SVGID_15_" gradientUnits="userSpaceOnUse" x1="-210.8579" y1="453.0898" x2="-210.4111" y2="453.0898" gradientTransform="matrix(0 -32.5545 -32.5545 0 14891.5732 -6833.6523)">
		<stop  offset="0" style="stop-color:#DF5F2C"/>
		<stop  offset="0.7819" style="stop-color:#E67B29"/>
		<stop  offset="1" style="stop-color:#E88428"/>
	</linearGradient>
	<rect x="134.426" y="16.199" clip-path="url(#SVGID_14_)" fill="url(#SVGID_15_)" width="14.083" height="14.55"/>
</g>
<g>
	<defs>
		<path id="SVGID_16_" d="M60.379,23.505c0-2.023,1.581-3.664,3.529-3.664c1.949,0,3.53,1.64,3.53,3.664
			c0,2.024-1.625,3.618-3.574,3.618C61.916,27.124,60.379,25.529,60.379,23.505 M56.151,23.477c0,4.42,3.473,8.004,7.757,8.004
			c4.283,0,7.759-3.584,7.759-8.004c0-4.42-3.476-8.003-7.759-8.003C59.624,15.474,56.151,19.057,56.151,23.477"/>
	</defs>
	<clipPath id="SVGID_17_">
		<use xlink:href="#SVGID_16_"  overflow="visible"/>
	</clipPath>
	
		<linearGradient id="SVGID_18_" gradientUnits="userSpaceOnUse" x1="-211.665" y1="449.9746" x2="-211.2178" y2="449.9746" gradientTransform="matrix(0 -35.8135 -35.8135 0 16179.0605 -7548.9873)">
		<stop  offset="0" style="stop-color:#DF5F2C"/>
		<stop  offset="0.7819" style="stop-color:#E67B29"/>
		<stop  offset="1" style="stop-color:#E88428"/>
	</linearGradient>
	<rect x="56.151" y="15.474" clip-path="url(#SVGID_17_)" fill="url(#SVGID_18_)" width="15.516" height="16.008"/>
</g>
<g>
	<defs>
		<path id="SVGID_19_" d="M121.035,23.477c0,4.42,3.46,8.004,7.728,8.004c1.569,0,3.029-0.484,4.249-1.314l-0.007-5.142
			l-2.153,1.452c-0.583,0.449-1.309,0.714-2.094,0.714c-1.94,0-3.515-1.629-3.515-3.64c0-2.011,1.574-3.641,3.515-3.641
			c0.806,0,1.545,0.279,2.138,0.749l2.121,1.345l0.012-5.234c-1.213-0.819-2.708-1.297-4.266-1.297
			C124.495,15.474,121.035,19.057,121.035,23.477"/>
	</defs>
	<clipPath id="SVGID_20_">
		<use xlink:href="#SVGID_19_"  overflow="visible"/>
	</clipPath>
	
		<linearGradient id="SVGID_21_" gradientUnits="userSpaceOnUse" x1="-211.665" y1="452.2813" x2="-211.2178" y2="452.2813" gradientTransform="matrix(0 -35.8135 -35.8135 0 16324.748 -7548.9873)">
		<stop  offset="0" style="stop-color:#DF5F2C"/>
		<stop  offset="0.7819" style="stop-color:#E67B29"/>
		<stop  offset="1" style="stop-color:#E88428"/>
	</linearGradient>
	<rect x="121.035" y="15.474" clip-path="url(#SVGID_20_)" fill="url(#SVGID_21_)" width="11.993" height="16.008"/>
</g>
<g>
	<defs>
		<path id="SVGID_22_" d="M94.231,23.505c0-2.023,1.579-3.664,3.526-3.664c1.952,0,3.53,1.64,3.53,3.664
			c0,2.024-1.622,3.618-3.571,3.618C95.765,27.124,94.231,25.529,94.231,23.505 M90,23.477c0,4.42,3.474,8.004,7.758,8.004
			c4.286,0,7.76-3.584,7.76-8.004c0-4.42-3.474-8.003-7.76-8.003C93.474,15.474,90,19.057,90,23.477"/>
	</defs>
	<clipPath id="SVGID_23_">
		<use xlink:href="#SVGID_22_"  overflow="visible"/>
	</clipPath>
	
		<linearGradient id="SVGID_24_" gradientUnits="userSpaceOnUse" x1="-211.665" y1="451.2109" x2="-211.2178" y2="451.2109" gradientTransform="matrix(0 -35.8135 -35.8135 0 16257.1855 -7548.9873)">
		<stop  offset="0" style="stop-color:#DF5F2C"/>
		<stop  offset="0.7819" style="stop-color:#E67B29"/>
		<stop  offset="1" style="stop-color:#E88428"/>
	</linearGradient>
	<rect x="90" y="15.474" clip-path="url(#SVGID_23_)" fill="url(#SVGID_24_)" width="15.518" height="16.008"/>
</g>
<g>
	<defs>
		<path id="SVGID_25_" d="M118.213,16.205c0,0-2.455,0.055-3.448,1.455c-0.993,1.401-3.602,5.793-3.602,5.793v-7.248h-4.952v14.536
			h2.101c0,0,2.336,0.022,3.433-1.458c1.099-1.475,3.634-5.808,3.634-5.808v7.266h4.949V16.205H118.213z"/>
	</defs>
	<clipPath id="SVGID_26_">
		<use xlink:href="#SVGID_25_"  overflow="visible"/>
	</clipPath>
	
		<linearGradient id="SVGID_27_" gradientUnits="userSpaceOnUse" x1="-210.8516" y1="451.957" x2="-210.405" y2="451.957" gradientTransform="matrix(0 -32.5282 -32.5282 0 14814.5947 -6827.8667)">
		<stop  offset="0" style="stop-color:#DF5F2C"/>
		<stop  offset="0.7819" style="stop-color:#E67B29"/>
		<stop  offset="1" style="stop-color:#E88428"/>
	</linearGradient>
	<rect x="106.211" y="16.205" clip-path="url(#SVGID_26_)" fill="url(#SVGID_27_)" width="14.116" height="14.559"/>
</g>
<g>
	<defs>
		<rect id="SVGID_28_" x="8.898" y="10.377" width="139.645" height="34.206"/>
	</defs>
	<clipPath id="SVGID_29_">
		<use xlink:href="#SVGID_28_"  overflow="visible"/>
	</clipPath>
	<polygon clip-path="url(#SVGID_29_)" fill="#C5C4C7" points="15.238,37.279 13.135,37.279 13.135,39.467 11.007,39.467 
		11.007,37.279 8.903,37.279 8.903,43.845 11.007,43.845 11.007,40.907 13.135,40.907 13.135,43.845 15.238,43.845 	"/>
	<path clip-path="url(#SVGID_29_)" fill="#C5C4C7" d="M21.804,42.513c-0.176,0.081-0.349,0.12-0.517,0.12
		c-0.305,0-0.536-0.054-0.692-0.166c-0.156-0.111-0.234-0.315-0.234-0.616c0-0.205,0.047-0.366,0.142-0.49
		c0.093-0.124,0.224-0.217,0.393-0.276c0.195-0.073,0.394-0.122,0.596-0.145c0.202-0.024,0.467-0.057,0.792-0.09v1.329
		C22.14,42.324,21.98,42.435,21.804,42.513 M22.282,43.845h2.139v-4.184c0-0.75-0.244-1.672-0.731-2.037
		c-0.486-0.365-1.482-0.55-2.548-0.55c-0.434,0-0.885,0.02-1.311,0.094c-0.426,0.077-0.867,0.169-1.058,0.227v1.585h0.166
		c0.29-0.134,0.675-0.239,0.98-0.327c0.305-0.085,0.638-0.13,0.866-0.13c0.503,0,0.881,0.069,1.132,0.204
		c0.251,0.138,0.377,0.447,0.377,0.799v0.035c-0.557,0.038-1.079,0.091-1.564,0.158c-0.484,0.067-0.901,0.189-1.251,0.362
		c-0.345,0.173-0.609,0.404-0.793,0.694c-0.184,0.294-0.275,0.765-0.275,1.24c0,0.574,0.181,1.054,0.543,1.432
		c0.361,0.379,0.816,0.568,1.362,0.568c0.295,0,0.523-0.022,0.686-0.068c0.164-0.044,0.332-0.11,0.505-0.2
		c0.176-0.09,0.316-0.183,0.421-0.272c0.104-0.09,0.223-0.191,0.354-0.304V43.845z"/>
	<path clip-path="url(#SVGID_29_)" fill="#C5C4C7" d="M34.986,37.279h-2.078l-2.148,3.65v-3.65h-2.115v6.567h1.879l2.347-3.878
		v3.878h2.116V37.279z M32.483,35.109c-0.006,0.292-0.057,0.35-0.153,0.497c-0.099,0.14-0.268,0.211-0.511,0.211
		c-0.243,0-0.414-0.071-0.51-0.218c-0.097-0.142-0.149-0.198-0.154-0.49h-1.104c0,0.474,0.081,0.657,0.375,1.092
		c0.293,0.436,0.803,0.562,1.394,0.562s1.034-0.197,1.329-0.492c0.294-0.301,0.441-0.684,0.441-1.161H32.483z"/>
	<path clip-path="url(#SVGID_29_)" fill="#C5C4C7" d="M45.577,42.389h-0.721v-5.087h-4.92c0,0.973-0.083,2.051-0.251,2.918
		c-0.166,0.864-0.39,1.57-0.669,2.169h-0.49v2.194h2.11v-0.761h2.81v0.761h2.132V42.389z M40.834,42.389
		c0.209-0.442,0.389-0.951,0.537-1.555c0.149-0.604,0.254-1.397,0.316-2.104h1.053v3.658H40.834z"/>
	<polygon clip-path="url(#SVGID_29_)" fill="#C5C4C7" points="55.453,37.279 53.376,37.279 51.205,40.93 51.205,37.279 
		49.089,37.279 49.089,43.845 50.923,43.845 53.293,39.972 53.293,43.845 55.453,43.845 	"/>
	<path clip-path="url(#SVGID_29_)" fill="#C5C4C7" d="M67.537,43.815c0.158-0.03,0.326-0.068,0.508-0.121
		c0.145-0.037,0.287-0.092,0.428-0.153c0.14-0.063,0.263-0.117,0.37-0.168v-1.656h-0.239c-0.064,0.066-0.142,0.139-0.229,0.226
		c-0.088,0.083-0.195,0.161-0.319,0.238c-0.128,0.076-0.279,0.146-0.457,0.199c-0.176,0.055-0.382,0.081-0.616,0.081
		c-0.46,0-0.83-0.152-1.108-0.459c-0.279-0.302-0.418-0.77-0.418-1.392c0-0.584,0.13-1.044,0.391-1.39
		c0.261-0.347,0.629-0.521,1.103-0.521c0.209,0,0.399,0.028,0.57,0.081c0.169,0.057,0.322,0.122,0.457,0.195
		c0.127,0.075,0.245,0.156,0.354,0.244c0.107,0.091,0.2,0.171,0.274,0.244h0.239v-1.658c-0.334-0.171-0.665-0.299-0.994-0.379
		c-0.33-0.078-0.661-0.119-0.99-0.119c-0.436,0-0.856,0.061-1.257,0.183c-0.403,0.126-0.751,0.315-1.049,0.577
		c-0.309,0.266-0.553,0.607-0.733,1.025c-0.181,0.417-0.271,0.921-0.271,1.517c0,0.553,0.083,1.033,0.25,1.437
		c0.167,0.411,0.399,0.748,0.696,1.019c0.301,0.268,0.657,0.468,1.066,0.6c0.409,0.127,0.861,0.191,1.353,0.191
		C67.171,43.856,67.379,43.843,67.537,43.815"/>
	<path clip-path="url(#SVGID_29_)" fill="#C5C4C7" d="M78.027,40.812c-0.227-0.267-0.511-0.448-0.852-0.539v-0.063
		c0.249-0.128,0.456-0.31,0.623-0.553c0.164-0.238,0.247-0.523,0.247-0.847c0-0.287-0.053-0.531-0.16-0.738
		c-0.105-0.208-0.268-0.371-0.483-0.495c-0.206-0.121-0.417-0.195-0.629-0.227c-0.213-0.031-0.546-0.048-0.998-0.048H72.37v6.543
		h3.565c0.382,0,0.711-0.031,0.988-0.107c0.279-0.072,0.541-0.21,0.792-0.414c0.199-0.168,0.357-0.368,0.474-0.619
		c0.117-0.239,0.177-0.52,0.177-0.834C78.366,41.435,78.252,41.084,78.027,40.812 M76.019,39.745
		c-0.144,0.112-0.35,0.171-0.617,0.171H74.48v-1.31h0.888c0.301,0,0.521,0.049,0.658,0.146c0.137,0.097,0.207,0.273,0.207,0.525
		C76.233,39.475,76.162,39.632,76.019,39.745 M76.279,42.341c-0.152,0.127-0.363,0.193-0.636,0.193H74.48v-1.496h1.129
		c0.299,0,0.522,0.055,0.673,0.172c0.151,0.114,0.227,0.312,0.227,0.6C76.509,42.028,76.433,42.207,76.279,42.341"/>
	<path clip-path="url(#SVGID_29_)" fill="#C5C4C7" d="M87.751,38.162c-0.555-0.583-1.335-0.875-2.342-0.875
		c-1.002,0-1.784,0.289-2.338,0.873c-0.557,0.58-0.833,1.379-0.833,2.405c0,1.013,0.276,1.814,0.833,2.396
		c0.554,0.584,1.336,0.878,2.338,0.878c1.01,0,1.792-0.294,2.346-0.878c0.552-0.582,0.829-1.384,0.829-2.396
		C88.584,39.548,88.307,38.748,87.751,38.162 M86.531,41.497c-0.058,0.222-0.143,0.411-0.257,0.569
		c-0.096,0.133-0.222,0.227-0.382,0.295c-0.158,0.065-0.313,0.1-0.467,0.1c-0.186,0-0.354-0.034-0.511-0.1
		c-0.15-0.068-0.279-0.169-0.382-0.314c-0.096-0.139-0.179-0.325-0.24-0.555c-0.062-0.235-0.092-0.538-0.092-0.915
		c0-0.378,0.032-0.689,0.097-0.938c0.066-0.251,0.155-0.449,0.263-0.59c0.117-0.148,0.245-0.254,0.385-0.307
		c0.137-0.054,0.293-0.076,0.464-0.076c0.182,0,0.344,0.026,0.485,0.088c0.145,0.063,0.272,0.165,0.385,0.32
		c0.105,0.146,0.188,0.343,0.249,0.589c0.06,0.24,0.09,0.545,0.09,0.913C86.618,40.966,86.591,41.274,86.531,41.497"/>
	<path clip-path="url(#SVGID_29_)" fill="#C5C4C7" d="M96.68,43.822c0.231-0.03,0.453-0.071,0.668-0.128
		c0.233-0.058,0.421-0.108,0.557-0.163c0.135-0.053,0.281-0.11,0.443-0.172v-1.595h-0.21c-0.087,0.06-0.199,0.134-0.337,0.21
		c-0.14,0.084-0.288,0.161-0.453,0.229c-0.186,0.082-0.389,0.148-0.613,0.198c-0.224,0.051-0.45,0.075-0.682,0.075
		c-0.271,0-0.518-0.024-0.746-0.075c-0.227-0.05-0.426-0.133-0.598-0.248c-0.174-0.114-0.313-0.268-0.421-0.464
		c-0.104-0.189-0.167-0.484-0.186-0.77h4.362v-0.645c0-0.948-0.247-1.683-0.741-2.193c-0.492-0.511-1.227-0.767-2.206-0.767
		c-1.078,0-1.913,0.301-2.511,0.903c-0.602,0.603-0.901,1.412-0.901,2.425c0,1.031,0.322,1.83,0.963,2.385
		c0.646,0.562,1.567,0.84,2.773,0.84C96.172,43.869,96.451,43.856,96.68,43.822 M94.096,39.812c0.023-0.388,0.143-0.691,0.362-0.92
		c0.217-0.223,0.52-0.333,0.906-0.333c0.38,0,0.661,0.108,0.844,0.32c0.186,0.213,0.282,0.524,0.293,0.933H94.096z M97.044,35.114
		h-1.403v1.439h1.403V35.114z M94.942,35.114h-1.425v1.439h1.425V35.114z"/>
	<path clip-path="url(#SVGID_29_)" fill="#C5C4C7" d="M111.396,40.479c0.103-0.086,0.174-0.174,0.215-0.263
		c0.039-0.089,0.105-0.237,0.186-0.448c0.034-0.073,0.068-0.149,0.103-0.229c0.034-0.076,0.087-0.155,0.158-0.231
		c0.068-0.075,0.15-0.134,0.245-0.183c0.094-0.05,0.198-0.073,0.315-0.073h0.641v-1.75c-0.058,0-0.414,0-0.542-0.005
		c-0.129-0.003-0.264-0.007-0.405-0.007c-0.41,0-0.755,0.083-1.039,0.243c-0.286,0.157-0.526,0.452-0.721,0.884
		c-0.046,0.105-0.099,0.23-0.16,0.37c-0.058,0.143-0.112,0.271-0.165,0.387c-0.157,0.339-0.412,0.554-0.547,0.631
		c-0.135,0.083-0.359,0.119-0.632,0.126v-2.629h-2.125v6.545h2.125v-2.598h0.52l1.575,2.598h2.219L111.396,40.479z"/>
	<polygon clip-path="url(#SVGID_29_)" fill="#C5C4C7" points="123.143,37.302 121.107,37.302 118.911,40.858 118.911,37.302 
		116.767,37.302 116.767,43.847 118.606,43.847 121.021,39.874 121.021,43.847 123.143,43.847 	"/>
	<polygon clip-path="url(#SVGID_29_)" fill="#C5C4C7" points="133.01,37.302 130.904,37.302 130.904,39.455 128.778,39.455 
		128.778,37.302 126.673,37.302 126.673,43.847 128.778,43.847 128.778,40.952 130.904,40.952 130.904,43.847 133.01,43.847 	"/>
	<path clip-path="url(#SVGID_29_)" fill="#C5C4C7" d="M142.058,38.181c-0.552-0.583-1.334-0.872-2.341-0.872
		c-1.002,0-1.782,0.287-2.339,0.866c-0.556,0.58-0.835,1.269-0.835,2.402c0,1.123,0.279,1.809,0.835,2.39
		c0.557,0.579,1.337,0.875,2.339,0.875c1.012,0,1.794-0.296,2.346-0.875c0.554-0.581,0.828-1.379,0.828-2.39
		C142.891,39.563,142.614,38.763,142.058,38.181 M140.841,41.501c-0.06,0.224-0.146,0.414-0.257,0.571
		c-0.096,0.127-0.222,0.228-0.382,0.293c-0.158,0.066-0.316,0.1-0.47,0.1c-0.185,0-0.352-0.033-0.505-0.1
		c-0.156-0.065-0.282-0.166-0.385-0.311c-0.099-0.139-0.179-0.324-0.243-0.556c-0.059-0.232-0.091-0.535-0.091-0.913
		c0-0.373,0.034-0.687,0.099-0.935c0.065-0.248,0.152-0.444,0.263-0.586c0.114-0.148,0.245-0.25,0.382-0.303
		c0.14-0.055,0.293-0.081,0.465-0.081c0.183,0,0.346,0.032,0.487,0.09c0.145,0.063,0.271,0.17,0.385,0.322
		c0.105,0.146,0.188,0.34,0.247,0.579c0.062,0.244,0.089,0.551,0.089,0.913C140.925,40.978,140.897,41.284,140.841,41.501"/>
	<path clip-path="url(#SVGID_29_)" fill="#C5C4C7" d="M146.415,35.085l0.227,6.549h1.719l0.183-6.549H146.415z M148.529,42.389
		h-2.104v1.456h2.104V42.389z"/>
</g>
</svg>
